<svg width="23" height="14" viewBox="0 0 23 14" fill="none" xmlns="http://www.w3.org/2000/svg">
<path d="M21.8394 5.12207H1.1594C0.66657 5.12207 0.265625 5.52302 0.265625 6.01585V11.2044C0.265625 11.6972 0.66657 12.0982 1.1594 12.0982H1.53145L1.09185 13.3389C1.00024 13.5974 1.13558 13.8812 1.39402 13.9727C1.44887 13.9921 1.50484 14.0014 1.55988 14.0014C1.76426 14.0014 1.95575 13.8742 2.02791 13.6705L2.58504 12.0981H20.4138L20.971 13.6705C21.0431 13.8742 21.2346 14.0014 21.439 14.0014C21.494 14.0014 21.55 13.9921 21.6048 13.9727C21.8633 13.8811 21.9986 13.5973 21.907 13.3389L21.4674 12.0982H21.8395C22.3323 12.0982 22.7332 11.6972 22.7332 11.2044V6.01585C22.7332 5.52302 22.3323 5.12207 21.8394 5.12207Z" fill="white"/>
<path fill-rule="evenodd" clip-rule="evenodd" d="M2.3125 1.60481C2.3125 0.718497 3.031 0 3.91731 0H19.0847C19.971 0 20.6895 0.718497 20.6895 1.60481V2.81498C20.6895 3.6637 20.0307 4.35854 19.1966 4.41596C19.1478 3.63999 18.7635 3.06885 18.3638 2.74909C17.9485 2.41694 17.4422 2.22996 16.8818 2.23305C16.3766 2.23597 15.8999 2.39231 15.5159 2.70186C15.1319 2.39231 14.6552 2.23597 14.15 2.23305C13.5896 2.22996 13.0834 2.41694 12.6679 2.74909C12.2695 3.06779 11.8865 3.63514 11.8513 4.41652C11.8512 4.41761 11.8512 4.4187 11.8512 4.41979H11.1517L11.1516 4.4165C11.1164 3.63512 10.7334 3.06776 10.335 2.74907C9.91952 2.41692 9.41324 2.22993 8.85293 2.23303C8.34772 2.23594 7.87098 2.39229 7.48699 2.70183C7.103 2.39229 6.62627 2.23594 6.12106 2.23303C5.56074 2.22993 5.0544 2.41692 4.63914 2.74907C4.23937 3.06884 3.85511 3.64001 3.80633 4.41601C2.97179 4.35901 2.3125 3.66399 2.3125 2.81498V1.60481Z" fill="white"/>
</svg>
