<svg width="12" height="14" viewBox="0 0 12 14" fill="none" xmlns="http://www.w3.org/2000/svg">
<path d="M12.0008 3.20085H9.20078C9.20078 1.72751 7.94778 0.53418 6.40078 0.53418C4.85378 0.53418 3.60078 1.72751 3.60078 3.20085H2.20078C1.43078 3.20085 0.800781 3.20085 0.800781 3.20085V12.5342C0.800781 13.2675 0.800781 13.8675 0.800781 13.8675H10.6008C11.3708 13.8675 12.0008 13.8675 12.0008 13.8675V4.53418C12.0008 3.80085 12.0008 3.20085 12.0008 3.20085ZM6.40078 1.86751C7.17078 1.86751 7.80078 2.46751 7.80078 3.20085H5.00078C5.00078 2.46751 5.63078 1.86751 6.40078 1.86751ZM10.6008 12.5342H2.20078V4.53418H3.60078V5.86751H4.30078H5.00078V4.53418H7.80078V5.86751H8.50078H9.20078V4.53418H10.6008V12.5342Z" fill="white"/>
</svg>
