<svg width="34" height="32" viewBox="0 0 34 32" fill="none" xmlns="http://www.w3.org/2000/svg">
<g clip-path="url(#clip0_128_8245)">
<path fill-rule="evenodd" clip-rule="evenodd" d="M19.8544 15.3708C20.2589 15.6606 20.8127 15.6962 21.4192 15.7155C22.1831 15.7425 23.0455 15.8335 23.9188 15.9586C24.7108 16.0714 25.6415 16.3111 26.4188 16.6172C27.8655 17.2083 29.1361 17.9343 30.5161 19.3368C30.6015 19.4236 30.7335 19.4576 30.8481 19.4154C32.3428 18.8689 33.2068 17.8061 33.5775 16.8675C33.9655 15.8893 34.0135 14.8307 33.6601 13.7884C33.3401 12.8487 32.7415 12.0565 31.9028 11.5314C32.2641 10.6254 32.2721 9.6408 31.9641 8.69758C31.6228 7.65147 30.9455 6.82298 30.0428 6.25348C29.1401 5.68399 27.7228 5.31261 26.1121 5.77544C24.5535 6.22201 22.8921 7.36165 21.8447 8.48074C20.7256 9.67852 19.9837 11.0237 19.4585 12.3203C19.2589 12.8357 19.0627 13.5389 19.1308 14.1034C19.2053 14.628 19.4268 15.0692 19.8544 15.3708ZM18.7252 18.6885C18.5676 19.1534 18.704 19.6781 18.8725 20.2468C19.0823 20.9641 19.2601 21.7922 19.408 22.6413C19.5428 23.4109 19.5965 24.3482 19.5385 25.1643C19.4095 26.6895 19.0943 28.0928 18.1536 29.8068C18.0953 29.9129 18.1028 30.0452 18.1797 30.1394C19.1743 31.3574 20.4771 31.8302 21.5069 31.8846C22.5801 31.9413 23.6268 31.6594 24.5335 31.009C25.3508 30.4226 25.9388 29.6217 26.1908 28.6808C27.1855 28.7371 28.1481 28.4399 28.9721 27.8626C29.8868 27.2225 30.4855 26.338 30.7615 25.3248C31.0375 24.3115 30.9615 22.8806 30.0121 21.5291C29.0961 20.2214 27.4721 19.0325 26.0561 18.4059C24.5428 17.7378 23.0028 17.4652 21.5764 17.3784C21.0124 17.3525 20.2661 17.3878 19.7369 17.6253C19.2485 17.8566 18.8869 18.1985 18.7252 18.6885ZM15.1419 18.6658C14.6401 18.6634 14.1705 18.952 13.6683 19.2842C13.034 19.7005 12.2816 20.1215 11.4996 20.5211C10.7909 20.884 9.89401 21.2234 9.08041 21.4217C7.55361 21.7734 6.08828 21.9145 4.12681 21.5713C4.00535 21.5501 3.87868 21.5979 3.81068 21.6983C2.93068 22.9975 2.87228 24.3525 3.13748 25.3248C3.41388 26.3382 4.01215 27.2225 4.92641 27.8626C5.75068 28.4399 6.71281 28.7371 7.70815 28.6808C7.96068 29.6217 8.54775 30.4226 9.36521 31.009C10.2719 31.6594 11.3188 31.9413 12.392 31.8846C13.4652 31.8279 14.8365 31.3149 15.8608 30.0167C16.8523 28.762 17.5093 26.8876 17.6829 25.3813C17.8665 23.7705 17.6563 22.2569 17.3 20.9066C17.1509 20.3752 16.8861 19.6937 16.4909 19.2762C16.1145 18.8945 15.6696 18.6647 15.1419 18.6658ZM16.9692 13.2976C17.3767 13.012 17.5825 12.5091 17.7888 11.9523C18.0512 11.2519 18.4063 10.48 18.7981 9.70818C19.1528 9.00822 19.674 8.21914 20.2127 7.59215C21.236 6.43222 22.3361 5.47768 24.1295 4.63046C24.2415 4.57804 24.3148 4.46669 24.3095 4.34649C24.2388 2.79072 23.4695 1.66109 22.6695 1.02656C21.8349 0.365225 20.8181 -0.00706776 19.6928 -0.000901155C18.6781 0.00489972 17.7207 0.316184 16.9495 0.932509C16.1783 0.316184 15.2208 0.00489972 14.2061 -0.000901155C13.0808 -0.00706776 12.0639 0.365225 11.2299 1.02656C10.3959 1.68789 9.59548 2.88932 9.54895 4.52692C9.50281 6.11053 10.1004 8.00373 10.8676 9.32184C11.6895 10.7304 12.7715 11.8344 13.8732 12.7224C14.3139 13.0669 14.9388 13.4664 15.5101 13.5775C16.0445 13.6705 16.5431 13.6013 16.9692 13.2976ZM14.0567 15.3342C13.9041 14.8677 13.4776 14.5213 12.9985 14.158C12.3967 13.698 11.7539 13.13 11.1227 12.5278C10.5499 11.9825 9.94188 11.2551 9.49708 10.5615C8.68255 9.25355 8.09201 7.93765 7.82055 6.01153C7.80375 5.89225 7.71801 5.78948 7.59895 5.75735C6.06041 5.3424 4.72161 5.70688 3.85575 6.25348C2.95335 6.82298 2.27628 7.65147 1.93468 8.69758C1.62655 9.64067 1.63415 10.6254 1.99655 11.5314C1.15748 12.0565 0.558146 12.8487 0.23908 13.7884C-0.114787 14.8307 -0.0661202 15.8893 0.320813 16.8675C0.707747 17.8457 1.63161 18.9596 3.21361 19.5088C4.74321 20.0409 6.77335 20.0715 8.29548 19.767C9.92241 19.4397 11.3329 18.7768 12.5392 18.0291C13.0112 17.7265 13.5936 17.2701 13.8785 16.7745C14.1344 16.3072 14.2209 15.8233 14.0567 15.3342Z" fill="white"/>
</g>
<defs>
<clipPath id="clip0_128_8245">
<rect width="34" height="32" fill="white"/>
</clipPath>
</defs>
</svg>
