<svg width="19" height="17" viewBox="0 0 19 17" fill="none" xmlns="http://www.w3.org/2000/svg">
<path fill-rule="evenodd" clip-rule="evenodd" d="M2.90234 8.0479C2.90234 5.18128 5.2262 2.85742 8.09282 2.85742C10.9594 2.85742 13.2833 5.18128 13.2833 8.0479C13.2833 10.9145 10.9594 13.2384 8.09282 13.2384C5.2262 13.2384 2.90234 10.9145 2.90234 8.0479ZM8.09282 0.857422C4.12163 0.857422 0.902344 4.07671 0.902344 8.0479C0.902344 12.0191 4.12163 15.2384 8.09282 15.2384C10.0098 15.2384 11.7516 14.4882 13.0406 13.2654C13.0915 13.3417 13.1539 13.4122 13.2275 13.4744L16.219 16.0023L16.9829 16.6477L18.2737 15.1201L17.5099 14.4746L14.5183 11.9467C14.4328 11.8745 14.3387 11.819 14.2401 11.7801C14.902 10.6921 15.2833 9.41454 15.2833 8.0479C15.2833 4.07671 12.064 0.857422 8.09282 0.857422Z" fill="white"/>
</svg>
